<?xml version="1.0" encoding="UTF-8" standalone="no"?>
<!DOCTYPE svg PUBLIC "-//W3C//DTD SVG 1.1//EN" "http://www.w3.org/Graphics/SVG/1.1/DTD/svg11.dtd">
<svg width="100%" height="100%" viewBox="0 0 2213 2300" version="1.1" xmlns="http://www.w3.org/2000/svg" xmlns:xlink="http://www.w3.org/1999/xlink" xml:space="preserve" xmlns:serif="http://www.serif.com/" style="fill-rule:evenodd;clip-rule:evenodd;stroke-linejoin:round;stroke-miterlimit:1.41421;">
    <g transform="matrix(17.7447,0,0,17.7447,-5115.27,-931.986)">
        <g id="Layer-1" serif:id="Layer 1">
            <g>
                <g transform="matrix(1,0,0,1,350.609,176.705)">
                    <path d="M0,-118.274C-33.347,-118.274 -60.388,-91.239 -60.388,-57.886C-60.388,-31.206 -43.085,-8.57 -19.091,-0.585C-16.073,-0.026 -14.965,-1.895 -14.965,-3.49C-14.965,-4.929 -15.021,-9.687 -15.047,-14.733C-31.847,-11.08 -35.392,-21.858 -35.392,-21.858C-38.139,-28.837 -42.097,-30.694 -42.097,-30.694C-47.576,-34.442 -41.684,-34.365 -41.684,-34.365C-35.62,-33.939 -32.427,-28.141 -32.427,-28.141C-27.041,-18.91 -18.3,-21.579 -14.854,-23.122C-14.311,-27.024 -12.747,-29.689 -11.02,-31.197C-24.433,-32.723 -38.533,-37.902 -38.533,-61.041C-38.533,-67.633 -36.174,-73.021 -32.311,-77.25C-32.938,-78.771 -35.005,-84.913 -31.725,-93.231C-31.725,-93.231 -26.654,-94.853 -15.115,-87.04C-10.298,-88.378 -5.132,-89.049 0,-89.073C5.132,-89.049 10.302,-88.378 15.128,-87.04C26.654,-94.853 31.718,-93.231 31.718,-93.231C35.005,-84.913 32.938,-78.771 32.311,-77.25C36.183,-73.021 38.525,-67.633 38.525,-61.041C38.525,-37.846 24.398,-32.74 10.951,-31.245C13.117,-29.371 15.047,-25.696 15.047,-20.062C15.047,-11.982 14.978,-5.479 14.978,-3.49C14.978,-1.882 16.064,0 19.125,-0.592C43.107,-8.586 60.388,-31.214 60.388,-57.886C60.388,-91.239 33.351,-118.274 0,-118.274" style="fill:rgb(24,23,23);"/>
                </g>
                <g transform="matrix(1,0,0,1,313.093,144.408)">
                    <path d="M0,0.726C-0.133,1.027 -0.605,1.117 -1.035,0.911C-1.474,0.713 -1.719,0.304 -1.577,0.003C-1.447,-0.305 -0.975,-0.391 -0.537,-0.185C-0.099,0.012 0.151,0.425 0,0.726" style="fill:rgb(24,23,23);fill-rule:nonzero;"/>
                </g>
                <g transform="matrix(1,0,0,1,315.539,146.329)">
                    <path d="M0,1.534C-0.288,1.801 -0.852,1.677 -1.233,1.255C-1.629,0.834 -1.702,0.27 -1.41,0C-1.113,-0.267 -0.567,-0.142 -0.172,0.279C0.224,0.705 0.301,1.263 0,1.534" style="fill:rgb(24,23,23);fill-rule:nonzero;"/>
                </g>
                <g transform="matrix(1,0,0,1,317.92,149.38)">
                    <path d="M0,1.96C-0.37,2.218 -0.976,1.977 -1.35,1.44C-1.72,0.902 -1.72,0.258 -1.341,0C-0.967,-0.258 -0.37,-0.025 0.009,0.507C0.378,1.053 0.378,1.697 0,1.96" style="fill:rgb(24,23,23);fill-rule:nonzero;"/>
                </g>
                <g transform="matrix(1,0,0,1,321.182,152.926)">
                    <path d="M0,1.775C-0.331,2.14 -1.036,2.042 -1.552,1.543C-2.08,1.057 -2.227,0.366 -1.896,0.001C-1.56,-0.365 -0.851,-0.262 -0.331,0.232C0.193,0.718 0.352,1.414 0,1.775" style="fill:rgb(24,23,23);fill-rule:nonzero;"/>
                </g>
                <g transform="matrix(1,0,0,1,325.682,155.887)">
                    <path d="M0,0.765C-0.147,1.238 -0.825,1.452 -1.509,1.251C-2.192,1.044 -2.639,0.491 -2.501,0.013C-2.359,-0.463 -1.677,-0.687 -0.988,-0.472C-0.306,-0.266 0.142,0.284 0,0.765" style="fill:rgb(24,23,23);fill-rule:nonzero;"/>
                </g>
                <g transform="matrix(1,0,0,1,330.624,157.054)">
                    <path d="M0,-0.041C0.017,0.457 -0.563,0.87 -1.281,0.879C-2.003,0.895 -2.588,0.492 -2.596,0.002C-2.596,-0.501 -2.028,-0.909 -1.307,-0.922C-0.589,-0.936 0,-0.535 0,-0.041" style="fill:rgb(24,23,23);fill-rule:nonzero;"/>
                </g>
                <g transform="matrix(1,0,0,1,335.223,156.691)">
                    <path d="M0,-0.46C0.086,0.025 -0.413,0.524 -1.126,0.657C-1.827,0.786 -2.476,0.485 -2.565,0.004C-2.652,-0.494 -2.145,-0.993 -1.444,-1.122C-0.73,-1.246 -0.091,-0.954 0,-0.46" style="fill:rgb(24,23,23);fill-rule:nonzero;"/>
                </g>
            </g>
        </g>
    </g>
</svg>
