<?xml version="1.0" encoding="UTF-8" standalone="no"?>
<!DOCTYPE svg PUBLIC "-//W3C//DTD SVG 1.1//EN" "http://www.w3.org/Graphics/SVG/1.1/DTD/svg11.dtd">
<svg width="100%" height="100%" viewBox="0 0 259 259" version="1.1" xmlns="http://www.w3.org/2000/svg" xmlns:xlink="http://www.w3.org/1999/xlink" xml:space="preserve" style="fill-rule:evenodd;clip-rule:evenodd;stroke-linejoin:round;stroke-miterlimit:1.41421;">
    <g transform="matrix(1,0,0,1,-2258.44,-1228.12)">
        <g id="logo" transform="matrix(1,0,0,1,0,309.757)">
            <rect x="2258.44" y="918.365" width="258.204" height="258.204" style="fill:none;"/>
            <g transform="matrix(0.482302,0,0,0.606332,475.219,651.49)">
                <g transform="matrix(9.20971,0,0,7.32579,-9738.56,-1529.46)">
                    <path d="M1484.31,313.422C1484.31,312.98 1484.13,312.556 1483.82,312.244C1483.51,311.931 1483.09,311.756 1482.64,311.756C1482.64,311.756 1482.64,311.756 1482.64,311.756C1482.2,311.756 1481.78,311.931 1481.46,312.244C1481.15,312.556 1480.98,312.98 1480.98,313.422C1480.98,314.734 1480.98,316.555 1480.98,317.868C1480.98,318.31 1481.15,318.734 1481.46,319.046C1481.78,319.359 1482.2,319.534 1482.64,319.534C1482.64,319.534 1482.64,319.534 1482.64,319.534C1483.09,319.534 1483.51,319.359 1483.82,319.046C1484.13,318.734 1484.31,318.31 1484.31,317.868C1484.31,316.555 1484.31,314.734 1484.31,313.422ZM1497.42,292.031C1497.42,291.589 1497.24,291.166 1496.93,290.853C1496.62,290.541 1496.19,290.365 1495.75,290.365C1495.75,290.365 1495.75,290.365 1495.75,290.365C1495.31,290.365 1494.88,290.541 1494.57,290.853C1494.26,291.166 1494.08,291.589 1494.08,292.031C1494.08,293.474 1494.08,295.549 1494.08,296.975C1494.08,297.402 1493.91,297.811 1493.61,298.113C1493.31,298.415 1492.9,298.584 1492.47,298.584C1492.47,298.584 1492.47,298.584 1492.47,298.584C1491.58,298.584 1490.86,297.864 1490.86,296.975L1490.86,282.145C1490.86,281.262 1490.51,280.414 1489.89,279.789C1489.26,279.164 1488.41,278.813 1487.53,278.813C1485.89,278.813 1483.98,278.813 1482.64,278.813C1482.2,278.813 1481.78,278.989 1481.46,279.301C1481.15,279.614 1480.98,280.037 1480.98,280.479C1480.98,280.479 1480.98,280.48 1480.98,280.48C1480.98,280.922 1481.15,281.345 1481.46,281.658C1481.78,281.97 1482.2,282.146 1482.64,282.146C1483.42,282.146 1484.37,282.146 1485.22,282.146C1485.83,282.146 1486.42,282.389 1486.85,282.823C1487.29,283.256 1487.53,283.844 1487.53,284.456C1487.53,287.837 1487.53,294.046 1487.53,296.975C1487.53,297.864 1486.81,298.584 1485.92,298.584C1485.92,298.584 1485.92,298.584 1485.92,298.584C1485.49,298.584 1485.08,298.415 1484.78,298.113C1484.48,297.811 1484.31,297.402 1484.31,296.975C1484.31,295.549 1484.31,293.474 1484.31,292.031C1484.31,291.589 1484.13,291.166 1483.82,290.853C1483.51,290.541 1483.09,290.365 1482.64,290.365C1482.64,290.365 1482.64,290.365 1482.64,290.365C1482.2,290.365 1481.78,290.541 1481.46,290.853C1481.15,291.166 1480.98,291.589 1480.98,292.031L1480.98,306.804C1480.98,308.645 1482.47,310.136 1484.31,310.136C1484.31,310.136 1484.31,310.136 1484.31,310.136C1484.31,310.136 1484.31,308.569 1484.31,306.804C1484.31,304.105 1486.5,301.917 1489.2,301.917C1489.2,301.917 1489.2,301.917 1489.2,301.917C1491.89,301.917 1494.08,304.105 1494.08,306.804C1494.08,312.017 1494.08,319.534 1494.08,319.534C1494.08,319.534 1494.08,319.534 1494.08,319.534C1494.97,319.534 1495.82,319.183 1496.44,318.558C1497.07,317.933 1497.42,317.086 1497.42,316.202C1497.42,309.956 1497.42,296.697 1497.42,292.031ZM1497.42,280.479C1497.42,280.037 1497.24,279.614 1496.93,279.301C1496.62,278.989 1496.19,278.813 1495.75,278.813C1494.31,278.813 1492.46,278.813 1492.46,278.813C1492.46,278.813 1492.46,279.179 1492.46,279.668C1492.46,281.037 1493.57,282.146 1494.94,282.146C1495.21,282.146 1495.49,282.146 1495.75,282.146C1496.19,282.146 1496.62,281.97 1496.93,281.658C1497.24,281.345 1497.42,280.922 1497.42,280.48C1497.42,280.48 1497.42,280.479 1497.42,280.479Z" style="fill:rgb(35,35,35);fill-opacity:0.101961;"/>
                </g>
                <g transform="matrix(9.20971,0,0,7.32579,-9761.57,-1547.76)">
                    <path d="M1484.31,313.422C1484.31,312.98 1484.13,312.556 1483.82,312.244C1483.51,311.931 1483.09,311.756 1482.64,311.756C1482.64,311.756 1482.64,311.756 1482.64,311.756C1482.2,311.756 1481.78,311.931 1481.46,312.244C1481.15,312.556 1480.98,312.98 1480.98,313.422C1480.98,314.734 1480.98,316.555 1480.98,317.868C1480.98,318.31 1481.15,318.734 1481.46,319.046C1481.78,319.359 1482.2,319.534 1482.64,319.534C1482.64,319.534 1482.64,319.534 1482.64,319.534C1483.09,319.534 1483.51,319.359 1483.82,319.046C1484.13,318.734 1484.31,318.31 1484.31,317.868C1484.31,316.555 1484.31,314.734 1484.31,313.422ZM1497.42,292.031C1497.42,291.589 1497.24,291.166 1496.93,290.853C1496.62,290.541 1496.19,290.365 1495.75,290.365C1495.75,290.365 1495.75,290.365 1495.75,290.365C1495.31,290.365 1494.88,290.541 1494.57,290.853C1494.26,291.166 1494.08,291.589 1494.08,292.031C1494.08,293.474 1494.08,295.549 1494.08,296.975C1494.08,297.402 1493.91,297.811 1493.61,298.113C1493.31,298.415 1492.9,298.584 1492.47,298.584C1492.47,298.584 1492.47,298.584 1492.47,298.584C1491.58,298.584 1490.86,297.864 1490.86,296.975L1490.86,282.145C1490.86,281.262 1490.51,280.414 1489.89,279.789C1489.26,279.164 1488.41,278.813 1487.53,278.813C1485.89,278.813 1483.98,278.813 1482.64,278.813C1482.2,278.813 1481.78,278.989 1481.46,279.301C1481.15,279.614 1480.98,280.037 1480.98,280.479C1480.98,280.479 1480.98,280.48 1480.98,280.48C1480.98,280.922 1481.15,281.345 1481.46,281.658C1481.78,281.97 1482.2,282.146 1482.64,282.146C1483.42,282.146 1484.37,282.146 1485.22,282.146C1485.83,282.146 1486.42,282.389 1486.85,282.823C1487.29,283.256 1487.53,283.844 1487.53,284.456C1487.53,287.837 1487.53,294.046 1487.53,296.975C1487.53,297.864 1486.81,298.584 1485.92,298.584C1485.92,298.584 1485.92,298.584 1485.92,298.584C1485.49,298.584 1485.08,298.415 1484.78,298.113C1484.48,297.811 1484.31,297.402 1484.31,296.975C1484.31,295.549 1484.31,293.474 1484.31,292.031C1484.31,291.589 1484.13,291.166 1483.82,290.853C1483.51,290.541 1483.09,290.365 1482.64,290.365C1482.64,290.365 1482.64,290.365 1482.64,290.365C1482.2,290.365 1481.78,290.541 1481.46,290.853C1481.15,291.166 1480.98,291.589 1480.98,292.031L1480.98,306.804C1480.98,308.645 1482.47,310.136 1484.31,310.136C1484.31,310.136 1484.31,310.136 1484.31,310.136C1484.31,310.136 1484.31,308.569 1484.31,306.804C1484.31,304.105 1486.5,301.917 1489.2,301.917C1489.2,301.917 1489.2,301.917 1489.2,301.917C1491.89,301.917 1494.08,304.105 1494.08,306.804C1494.08,312.017 1494.08,319.534 1494.08,319.534C1494.08,319.534 1494.08,319.534 1494.08,319.534C1494.97,319.534 1495.82,319.183 1496.44,318.558C1497.07,317.933 1497.42,317.086 1497.42,316.202C1497.42,309.956 1497.42,296.697 1497.42,292.031ZM1497.42,280.479C1497.42,280.037 1497.24,279.614 1496.93,279.301C1496.62,278.989 1496.19,278.813 1495.75,278.813C1494.31,278.813 1492.46,278.813 1492.46,278.813C1492.46,278.813 1492.46,279.179 1492.46,279.668C1492.46,281.037 1493.57,282.146 1494.94,282.146C1495.21,282.146 1495.49,282.146 1495.75,282.146C1496.19,282.146 1496.62,281.97 1496.93,281.658C1497.24,281.345 1497.42,280.922 1497.42,280.48C1497.42,280.48 1497.42,280.479 1497.42,280.479Z" style="fill:none;stroke:rgb(35,35,35);stroke-opacity:0.878431;stroke-width:0.68px;"/>
                </g>
            </g>
        </g>
    </g>
</svg>
