<?xml version="1.0" encoding="UTF-8" standalone="no"?>
<!DOCTYPE svg PUBLIC "-//W3C//DTD SVG 1.1//EN" "http://www.w3.org/Graphics/SVG/1.1/DTD/svg11.dtd">
<svg width="100%" height="100%" viewBox="0 0 259 259" version="1.1" xmlns="http://www.w3.org/2000/svg" xmlns:xlink="http://www.w3.org/1999/xlink" xml:space="preserve" style="fill-rule:evenodd;clip-rule:evenodd;stroke-linejoin:round;stroke-miterlimit:1.41421;">
    <g transform="matrix(1,0,0,1,-2258.44,-918.365)">
        <rect id="abstract" x="2258.44" y="918.365" width="258.204" height="258.204" style="fill:none;"/>
        <clipPath id="_clip1">
            <rect id="abstract1" x="2258.44" y="918.365" width="258.204" height="258.204"/>
        </clipPath>
        <g clip-path="url(#_clip1)">
            <g transform="matrix(0.375247,0,0,0.471747,1132.04,841.824)">
                <g transform="matrix(2.66491,0,0,2.11978,-3361.08,-475.08)">
                    <circle cx="2541.77" cy="514.014" r="5.357" style="fill:rgb(35,35,35);fill-opacity:0.101961;"/>
                </g>
                <g transform="matrix(2.66491,0,0,2.11978,-3387.73,-496.278)">
                    <path d="M2541.88,505.658L2541.98,505.66L2542.09,505.664L2542.2,505.668L2542.3,505.674L2542.41,505.682L2542.51,505.69L2542.62,505.701L2542.73,505.712L2542.83,505.725L2542.93,505.738L2543.04,505.754L2543.14,505.77L2543.24,505.788L2543.35,505.807L2543.45,505.827L2543.55,505.849L2543.65,505.872L2543.76,505.896L2543.86,505.921L2543.95,505.947L2544.06,505.976L2544.16,506.004L2544.25,506.034L2544.35,506.066L2544.45,506.098L2544.55,506.131L2544.64,506.165L2544.74,506.202L2544.84,506.239L2544.93,506.277L2545.02,506.316L2545.12,506.356L2545.21,506.398L2545.3,506.44L2545.39,506.483L2545.49,506.529L2545.58,506.574L2545.67,506.621L2545.76,506.669L2545.84,506.717L2545.93,506.767L2546.02,506.817L2546.11,506.87L2546.19,506.923L2546.28,506.976L2546.36,507.032L2546.44,507.088L2546.53,507.143L2546.61,507.202L2546.69,507.262L2546.77,507.32L2546.85,507.379L2546.93,507.442L2547.01,507.505L2547.09,507.569L2547.16,507.631L2547.24,507.697L2547.32,507.764L2547.39,507.83L2547.46,507.899L2547.53,507.965L2547.61,508.037L2547.68,508.108L2547.75,508.174L2547.82,508.249L2547.89,508.323L2547.95,508.395L2548.02,508.468L2548.09,508.543L2548.15,508.622L2548.22,508.701L2548.28,508.777L2548.34,508.854L2548.4,508.931L2548.46,509.009L2548.53,509.096L2548.59,509.18L2548.64,509.259L2548.7,509.339L2548.75,509.423L2548.81,509.509L2548.86,509.592L2548.91,509.677L2548.97,509.765L2549.02,509.853L2549.07,509.941L2549.12,510.029L2549.16,510.118L2549.21,510.208L2549.26,510.298L2549.3,510.388L2549.35,510.485L2549.39,510.576L2549.43,510.668L2549.47,510.76L2549.51,510.853L2549.55,510.951L2549.58,511.043L2549.62,511.143L2549.65,511.237L2549.68,511.331L2549.72,511.437L2549.75,511.531L2549.78,511.626L2549.81,511.728L2549.84,511.829L2549.86,511.93L2549.89,512.026L2549.91,512.129L2549.94,512.236L2549.96,512.333L2549.98,512.436L2550,512.539L2550.01,512.642L2550.03,512.745L2550.05,512.848L2550.06,512.952L2550.07,513.056L2550.08,513.165L2550.09,513.269L2550.1,513.379L2550.11,513.482L2550.12,513.586L2550.12,513.691L2550.12,513.8L2550.13,513.91L2550.13,514.014L2550.13,514.119L2550.12,514.228L2550.12,514.338L2550.12,514.442L2550.11,514.546L2550.1,514.65L2550.09,514.76L2550.08,514.864L2550.07,514.974L2550.06,515.077L2550.05,515.18L2550.03,515.284L2550.01,515.387L2550,515.49L2549.98,515.593L2549.96,515.695L2549.94,515.793L2549.91,515.901L2549.89,516.002L2549.86,516.098L2549.84,516.2L2549.81,516.302L2549.78,516.402L2549.75,516.497L2549.72,516.592L2549.68,516.698L2549.65,516.792L2549.62,516.886L2549.58,516.985L2549.55,517.078L2549.51,517.176L2549.47,517.269L2549.43,517.362L2549.39,517.453L2549.35,517.544L2549.3,517.64L2549.26,517.73L2549.21,517.821L2549.16,517.911L2549.12,518L2549.07,518.088L2549.02,518.176L2548.97,518.264L2548.91,518.351L2548.86,518.438L2548.81,518.52L2548.75,518.605L2548.7,518.69L2548.64,518.77L2548.59,518.849L2548.53,518.933L2548.46,519.02L2548.4,519.097L2548.34,519.176L2548.28,519.251L2548.22,519.328L2548.15,519.408L2548.09,519.486L2548.02,519.56L2547.95,519.633L2547.89,519.706L2547.82,519.78L2547.75,519.854L2547.68,519.921L2547.61,519.991L2547.53,520.064L2547.46,520.131L2547.39,520.198L2547.31,520.266L2547.24,520.333L2547.16,520.398L2547.09,520.459L2547.01,520.524L2546.93,520.587L2546.85,520.65L2546.77,520.709L2546.69,520.767L2546.61,520.827L2546.53,520.885L2546.44,520.942L2546.36,520.996L2546.28,521.052L2546.19,521.106L2546.11,521.159L2546.02,521.212L2545.93,521.262L2545.84,521.312L2545.76,521.36L2545.67,521.408L2545.58,521.454L2545.49,521.5L2545.39,521.547L2545.3,521.589L2545.21,521.631L2545.12,521.672L2545.03,521.712L2544.93,521.752L2544.83,521.79L2544.74,521.828L2544.64,521.863L2544.55,521.897L2544.45,521.93L2544.35,521.963L2544.25,521.995L2544.16,522.025L2544.06,522.053L2543.95,522.082L2543.85,522.108L2543.76,522.133L2543.66,522.157L2543.55,522.18L2543.45,522.201L2543.35,522.222L2543.24,522.241L2543.14,522.258L2543.04,522.275L2542.94,522.29L2542.83,522.305L2542.72,522.317L2542.62,522.328L2542.51,522.338L2542.41,522.347L2542.3,522.354L2542.2,522.36L2542.09,522.365L2541.98,522.369L2541.88,522.371L2541.77,522.371L2541.66,522.371L2541.56,522.369L2541.45,522.365L2541.34,522.36L2541.24,522.354L2541.13,522.347L2541.02,522.338L2540.92,522.328L2540.82,522.317L2540.71,522.304L2540.6,522.29L2540.5,522.275L2540.4,522.258L2540.29,522.241L2540.19,522.222L2540.09,522.201L2539.99,522.18L2539.88,522.157L2539.78,522.133L2539.68,522.108L2539.58,522.082L2539.48,522.053L2539.39,522.025L2539.29,521.995L2539.19,521.963L2539.09,521.93L2538.99,521.897L2538.9,521.863L2538.8,521.827L2538.71,521.79L2538.61,521.753L2538.51,521.712L2538.42,521.671L2538.33,521.631L2538.24,521.59L2538.15,521.545L2538.05,521.5L2537.97,521.456L2537.87,521.408L2537.78,521.36L2537.7,521.312L2537.61,521.26L2537.52,521.211L2537.44,521.16L2537.35,521.106L2537.26,521.05L2537.18,520.998L2537.1,520.944L2537.01,520.883L2536.93,520.827L2536.85,520.769L2536.77,520.709L2536.69,520.65L2536.61,520.587L2536.53,520.524L2536.45,520.459L2536.38,520.395L2536.3,520.333L2536.23,520.269L2536.15,520.198L2536.08,520.131L2536.01,520.064L2535.93,519.991L2535.86,519.921L2535.79,519.854L2535.72,519.78L2535.65,519.706L2535.58,519.633L2535.52,519.557L2535.45,519.486L2535.39,519.408L2535.32,519.328L2535.26,519.254L2535.2,519.176L2535.13,519.093L2535.08,519.016L2535.02,518.937L2534.96,518.853L2534.9,518.77L2534.84,518.69L2534.79,518.605L2534.73,518.52L2534.68,518.438L2534.63,518.351L2534.57,518.264L2534.52,518.176L2534.47,518.088L2534.42,518L2534.38,517.911L2534.33,517.821L2534.28,517.725L2534.24,517.64L2534.2,517.549L2534.15,517.453L2534.11,517.362L2534.07,517.269L2534.03,517.176L2533.99,517.078L2533.95,516.98L2533.92,516.886L2533.89,516.792L2533.85,516.698L2533.82,516.597L2533.79,516.497L2533.76,516.402L2533.73,516.302L2533.7,516.2L2533.68,516.098L2533.65,515.997L2533.63,515.901L2533.6,515.798L2533.58,515.695L2533.56,515.593L2533.54,515.49L2533.53,515.387L2533.51,515.284L2533.49,515.18L2533.48,515.071L2533.47,514.974L2533.46,514.87L2533.45,514.76L2533.44,514.65L2533.43,514.546L2533.42,514.442L2533.42,514.333L2533.41,514.228L2533.41,514.124L2533.41,514.014L2533.41,513.904L2533.41,513.8L2533.42,513.696L2533.42,513.586L2533.43,513.482L2533.44,513.379L2533.45,513.269L2533.46,513.159L2533.47,513.056L2533.48,512.958L2533.49,512.848L2533.51,512.745L2533.53,512.642L2533.54,512.539L2533.56,512.436L2533.58,512.333L2533.6,512.231L2533.63,512.129L2533.65,512.032L2533.68,511.93L2533.7,511.829L2533.73,511.728L2533.76,511.626L2533.79,511.531L2533.82,511.431L2533.85,511.331L2533.89,511.237L2533.92,511.143L2533.95,511.049L2533.99,510.951L2534.03,510.853L2534.07,510.76L2534.11,510.668L2534.15,510.576L2534.2,510.48L2534.24,510.388L2534.28,510.303L2534.33,510.208L2534.38,510.118L2534.42,510.029L2534.47,509.941L2534.52,509.853L2534.57,509.765L2534.63,509.677L2534.68,509.592L2534.73,509.509L2534.79,509.423L2534.84,509.339L2534.9,509.259L2534.96,509.175L2535.02,509.091L2535.08,509.013L2535.13,508.935L2535.2,508.854L2535.26,508.774L2535.32,508.701L2535.39,508.622L2535.45,508.543L2535.52,508.472L2535.59,508.395L2535.65,508.323L2535.72,508.249L2535.79,508.174L2535.86,508.108L2535.93,508.037L2536.01,507.965L2536.08,507.899L2536.15,507.83L2536.23,507.761L2536.3,507.697L2536.38,507.633L2536.45,507.569L2536.53,507.505L2536.61,507.442L2536.69,507.379L2536.77,507.32L2536.85,507.26L2536.93,507.202L2537.01,507.145L2537.1,507.086L2537.18,507.03L2537.26,506.978L2537.35,506.923L2537.44,506.868L2537.52,506.819L2537.61,506.769L2537.7,506.717L2537.78,506.669L2537.87,506.621L2537.97,506.573L2538.05,506.529L2538.14,506.484L2538.24,506.439L2538.33,506.398L2538.42,506.357L2538.51,506.316L2538.61,506.276L2538.7,506.239L2538.8,506.202L2538.9,506.165L2538.99,506.131L2539.09,506.098L2539.19,506.066L2539.29,506.034L2539.39,506.004L2539.48,505.976L2539.58,505.947L2539.68,505.921L2539.78,505.896L2539.89,505.872L2539.99,505.849L2540.09,505.827L2540.19,505.807L2540.29,505.788L2540.4,505.77L2540.5,505.754L2540.61,505.738L2540.71,505.725L2540.81,505.712L2540.92,505.701L2541.02,505.69L2541.13,505.682L2541.24,505.674L2541.34,505.668L2541.45,505.664L2541.56,505.66L2541.66,505.658L2541.77,505.657L2541.88,505.658ZM2541.7,508.658L2541.63,508.659L2541.56,508.661L2541.49,508.665L2541.43,508.668L2541.36,508.673L2541.29,508.679L2541.22,508.685L2541.16,508.693L2541.09,508.701L2541.02,508.71L2540.95,508.719L2540.89,508.73L2540.82,508.741L2540.76,508.753L2540.69,508.766L2540.62,508.78L2540.56,508.795L2540.5,508.81L2540.43,508.826L2540.37,508.843L2540.3,508.861L2540.24,508.879L2540.18,508.899L2540.12,508.919L2540.05,508.939L2539.99,508.961L2539.93,508.983L2539.87,509.006L2539.81,509.029L2539.74,509.054L2539.68,509.079L2539.62,509.105L2539.57,509.131L2539.51,509.158L2539.45,509.186L2539.39,509.215L2539.33,509.244L2539.27,509.274L2539.22,509.304L2539.16,509.336L2539.1,509.368L2539.05,509.4L2538.99,509.434L2538.94,509.467L2538.88,509.502L2538.83,509.537L2538.78,509.573L2538.72,509.609L2538.67,509.646L2538.62,509.684L2538.57,509.722L2538.51,509.761L2538.46,509.801L2538.41,509.841L2538.36,509.881L2538.31,509.923L2538.26,509.965L2538.22,510.007L2538.17,510.05L2538.12,510.093L2538.07,510.137L2538.03,510.182L2537.98,510.227L2537.94,510.273L2537.89,510.319L2537.85,510.366L2537.8,510.413L2537.76,510.461L2537.72,510.51L2537.68,510.558L2537.64,510.608L2537.6,510.658L2537.56,510.708L2537.52,510.759L2537.48,510.81L2537.44,510.862L2537.4,510.914L2537.36,510.967L2537.33,511.02L2537.29,511.074L2537.26,511.128L2537.22,511.183L2537.19,511.238L2537.16,511.293L2537.12,511.349L2537.09,511.405L2537.06,511.462L2537.03,511.519L2537,511.577L2536.97,511.635L2536.94,511.693L2536.91,511.752L2536.89,511.811L2536.86,511.87L2536.83,511.93L2536.81,511.99L2536.78,512.051L2536.76,512.112L2536.74,512.173L2536.72,512.235L2536.69,512.297L2536.67,512.359L2536.65,512.422L2536.63,512.485L2536.62,512.549L2536.6,512.612L2536.58,512.676L2536.57,512.741L2536.55,512.805L2536.53,512.87L2536.52,512.935L2536.51,513.001L2536.5,513.067L2536.49,513.133L2536.47,513.199L2536.47,513.266L2536.46,513.333L2536.45,513.4L2536.44,513.467L2536.43,513.535L2536.43,513.603L2536.42,513.671L2536.42,513.739L2536.42,513.807L2536.41,513.876L2536.41,513.945L2536.41,514.014L2536.41,514.084L2536.41,514.153L2536.42,514.221L2536.42,514.29L2536.42,514.358L2536.43,514.426L2536.43,514.494L2536.44,514.562L2536.45,514.629L2536.46,514.696L2536.47,514.763L2536.47,514.83L2536.49,514.896L2536.5,514.962L2536.51,515.028L2536.52,515.093L2536.53,515.159L2536.55,515.224L2536.57,515.288L2536.58,515.353L2536.6,515.417L2536.62,515.48L2536.63,515.544L2536.65,515.607L2536.67,515.669L2536.69,515.732L2536.72,515.794L2536.74,515.855L2536.76,515.917L2536.78,515.978L2536.81,516.038L2536.83,516.099L2536.86,516.159L2536.89,516.218L2536.91,516.277L2536.94,516.336L2536.97,516.394L2537,516.452L2537.03,516.51L2537.06,516.567L2537.09,516.624L2537.12,516.68L2537.16,516.736L2537.19,516.791L2537.22,516.846L2537.26,516.901L2537.29,516.955L2537.33,517.009L2537.36,517.062L2537.4,517.115L2537.44,517.167L2537.48,517.219L2537.52,517.27L2537.56,517.321L2537.6,517.371L2537.64,517.421L2537.68,517.47L2537.72,517.519L2537.76,517.568L2537.8,517.615L2537.85,517.663L2537.89,517.71L2537.94,517.756L2537.98,517.802L2538.03,517.847L2538.07,517.891L2538.12,517.935L2538.17,517.979L2538.22,518.022L2538.26,518.064L2538.31,518.106L2538.36,518.147L2538.41,518.188L2538.46,518.228L2538.51,518.268L2538.57,518.306L2538.62,518.345L2538.67,518.382L2538.72,518.419L2538.78,518.456L2538.83,518.492L2538.88,518.527L2538.94,518.561L2538.99,518.595L2539.05,518.629L2539.1,518.661L2539.16,518.693L2539.22,518.724L2539.27,518.755L2539.33,518.785L2539.39,518.814L2539.45,518.843L2539.51,518.871L2539.57,518.898L2539.62,518.924L2539.68,518.95L2539.74,518.975L2539.81,518.999L2539.87,519.023L2539.93,519.046L2539.99,519.068L2540.05,519.09L2540.12,519.11L2540.18,519.13L2540.24,519.149L2540.3,519.168L2540.37,519.186L2540.43,519.203L2540.5,519.219L2540.56,519.234L2540.62,519.249L2540.69,519.262L2540.76,519.275L2540.82,519.288L2540.89,519.299L2540.95,519.31L2541.02,519.319L2541.09,519.328L2541.16,519.336L2541.22,519.344L2541.29,519.35L2541.36,519.356L2541.43,519.36L2541.49,519.364L2541.56,519.367L2541.63,519.37L2541.7,519.371L2541.77,519.371L2541.84,519.371L2541.91,519.37L2541.98,519.367L2542.05,519.364L2542.11,519.36L2542.18,519.356L2542.25,519.35L2542.32,519.344L2542.38,519.336L2542.45,519.328L2542.52,519.319L2542.59,519.31L2542.65,519.299L2542.72,519.288L2542.78,519.275L2542.85,519.262L2542.91,519.249L2542.98,519.234L2543.04,519.219L2543.11,519.203L2543.17,519.186L2543.24,519.168L2543.3,519.149L2543.36,519.13L2543.42,519.11L2543.49,519.09L2543.55,519.068L2543.61,519.046L2543.67,519.023L2543.73,518.999L2543.79,518.975L2543.85,518.95L2543.91,518.924L2543.97,518.898L2544.03,518.871L2544.09,518.843L2544.15,518.814L2544.21,518.785L2544.26,518.755L2544.32,518.724L2544.38,518.693L2544.43,518.661L2544.49,518.629L2544.55,518.595L2544.6,518.561L2544.66,518.527L2544.71,518.492L2544.76,518.456L2544.82,518.419L2544.87,518.382L2544.92,518.345L2544.97,518.306L2545.03,518.268L2545.08,518.228L2545.13,518.188L2545.18,518.147L2545.23,518.106L2545.27,518.064L2545.32,518.022L2545.37,517.979L2545.42,517.935L2545.47,517.891L2545.51,517.847L2545.56,517.802L2545.6,517.756L2545.65,517.71L2545.69,517.663L2545.73,517.615L2545.78,517.568L2545.82,517.519L2545.86,517.47L2545.9,517.421L2545.94,517.371L2545.98,517.321L2546.02,517.27L2546.06,517.219L2546.1,517.167L2546.14,517.115L2546.18,517.062L2546.21,517.009L2546.25,516.955L2546.28,516.901L2546.32,516.846L2546.35,516.791L2546.38,516.736L2546.42,516.68L2546.45,516.624L2546.48,516.567L2546.51,516.51L2546.54,516.452L2546.57,516.394L2546.6,516.336L2546.63,516.277L2546.65,516.218L2546.68,516.159L2546.7,516.099L2546.73,516.038L2546.76,515.978L2546.78,515.917L2546.8,515.855L2546.82,515.794L2546.85,515.732L2546.87,515.669L2546.89,515.607L2546.91,515.544L2546.92,515.48L2546.94,515.417L2546.96,515.353L2546.97,515.288L2546.99,515.224L2547,515.159L2547.02,515.093L2547.03,515.028L2547.04,514.962L2547.05,514.896L2547.07,514.83L2547.07,514.763L2547.08,514.696L2547.09,514.629L2547.1,514.562L2547.11,514.494L2547.11,514.426L2547.12,514.358L2547.12,514.29L2547.12,514.221L2547.12,514.153L2547.13,514.084L2547.13,514.014L2547.13,513.945L2547.12,513.876L2547.12,513.807L2547.12,513.739L2547.12,513.671L2547.11,513.603L2547.11,513.535L2547.1,513.467L2547.09,513.4L2547.08,513.333L2547.07,513.266L2547.07,513.199L2547.05,513.133L2547.04,513.067L2547.03,513.001L2547.02,512.935L2547,512.87L2546.99,512.805L2546.97,512.741L2546.96,512.676L2546.94,512.612L2546.92,512.549L2546.91,512.485L2546.89,512.422L2546.87,512.359L2546.85,512.297L2546.82,512.235L2546.8,512.173L2546.78,512.112L2546.76,512.051L2546.73,511.99L2546.7,511.93L2546.68,511.87L2546.65,511.811L2546.63,511.752L2546.6,511.693L2546.57,511.635L2546.54,511.577L2546.51,511.519L2546.48,511.462L2546.45,511.405L2546.42,511.349L2546.38,511.293L2546.35,511.238L2546.32,511.183L2546.28,511.128L2546.25,511.074L2546.21,511.02L2546.18,510.967L2546.14,510.914L2546.1,510.862L2546.06,510.81L2546.02,510.759L2545.98,510.708L2545.94,510.658L2545.9,510.608L2545.86,510.558L2545.82,510.51L2545.78,510.461L2545.73,510.413L2545.69,510.366L2545.65,510.319L2545.6,510.273L2545.56,510.227L2545.51,510.182L2545.47,510.137L2545.42,510.093L2545.37,510.05L2545.32,510.007L2545.27,509.965L2545.23,509.923L2545.18,509.881L2545.13,509.841L2545.08,509.801L2545.03,509.761L2544.97,509.722L2544.92,509.684L2544.87,509.646L2544.82,509.609L2544.76,509.573L2544.71,509.537L2544.66,509.502L2544.6,509.467L2544.55,509.434L2544.49,509.4L2544.43,509.368L2544.38,509.336L2544.32,509.304L2544.26,509.274L2544.21,509.244L2544.15,509.215L2544.09,509.186L2544.03,509.158L2543.97,509.131L2543.91,509.105L2543.85,509.079L2543.79,509.054L2543.73,509.029L2543.67,509.006L2543.61,508.983L2543.55,508.961L2543.49,508.939L2543.42,508.919L2543.36,508.899L2543.3,508.879L2543.24,508.861L2543.17,508.843L2543.11,508.826L2543.04,508.81L2542.98,508.795L2542.91,508.78L2542.85,508.766L2542.78,508.753L2542.72,508.741L2542.65,508.73L2542.59,508.719L2542.52,508.71L2542.45,508.701L2542.38,508.693L2542.32,508.685L2542.25,508.679L2542.18,508.673L2542.11,508.668L2542.05,508.665L2541.98,508.661L2541.91,508.659L2541.84,508.658L2541.77,508.658L2541.7,508.658Z" style="fill:rgb(35,35,35);fill-opacity:0.878431;"/>
                </g>
                <g transform="matrix(2.66491,0,0,2.11978,-3358.55,-496.548)">
                    <path d="M2549.93,514.746L2549.87,514.755L2549.42,514.819L2548.97,514.88L2548.53,514.939L2548.08,514.994L2547.63,515.047L2547.18,515.097L2546.73,515.144L2546.28,515.189L2545.83,515.231L2545.37,515.269L2544.92,515.305L2544.46,515.339L2544.01,515.369L2543.55,515.397L2543.09,515.421L2542.64,515.443L2542.3,515.457L2542.18,512.459L2542.5,512.446L2542.94,512.425L2543.38,512.401L2543.82,512.375L2544.25,512.346L2544.69,512.314L2545.12,512.28L2545.56,512.242L2545.99,512.202L2546.43,512.16L2546.86,512.114L2547.29,512.066L2547.72,512.016L2548.15,511.963L2548.58,511.907L2549.01,511.848L2549.43,511.787L2549.49,511.779L2549.93,514.746ZM2564.73,510.905L2564.44,511.012L2564.03,511.164L2563.62,511.314L2563.2,511.461L2562.79,511.606L2562.38,511.748L2561.96,511.887L2561.54,512.025L2561.12,512.159L2560.7,512.291L2560.28,512.421L2559.86,512.548L2559.44,512.673L2559.01,512.795L2558.59,512.914L2558.16,513.031L2557.73,513.146L2557.43,513.224L2556.68,510.321L2556.97,510.245L2557.38,510.136L2557.78,510.024L2558.19,509.909L2558.6,509.792L2559,509.673L2559.41,509.551L2559.81,509.427L2560.21,509.3L2560.61,509.171L2561.01,509.04L2561.41,508.906L2561.81,508.77L2562.21,508.632L2562.6,508.491L2563,508.348L2563.39,508.202L2563.67,508.097L2564.73,510.905ZM2578.37,503.992L2578.01,504.222L2577.64,504.454L2577.28,504.684L2576.91,504.911L2576.54,505.137L2576.17,505.36L2575.8,505.581L2575.43,505.8L2575.06,506.017L2574.68,506.232L2574.3,506.444L2573.92,506.655L2573.55,506.863L2573.16,507.068L2572.78,507.272L2572.4,507.473L2572.01,507.672L2571.74,507.812L2570.38,505.138L2570.64,505.002L2571.01,504.812L2571.38,504.619L2571.75,504.424L2572.11,504.227L2572.48,504.027L2572.84,503.826L2573.2,503.623L2573.56,503.417L2573.92,503.209L2574.28,502.999L2574.63,502.787L2574.99,502.573L2575.34,502.357L2575.69,502.139L2576.04,501.919L2576.39,501.697L2576.74,501.472L2578.37,503.992ZM2590.23,494.344L2590.05,494.524L2589.75,494.827L2589.44,495.128L2589.13,495.428L2588.82,495.725L2588.51,496.021L2588.2,496.314L2587.88,496.606L2587.56,496.896L2587.24,497.185L2586.93,497.471L2586.6,497.755L2586.28,498.038L2585.95,498.318L2585.62,498.597L2585.3,498.874L2584.97,499.148L2584.63,499.421L2584.55,499.484L2582.67,497.153L2582.74,497.096L2583.05,496.835L2583.37,496.571L2583.69,496.306L2584,496.039L2584.31,495.77L2584.62,495.5L2584.93,495.227L2585.24,494.953L2585.55,494.676L2585.85,494.399L2586.15,494.119L2586.45,493.837L2586.75,493.554L2587.05,493.269L2587.35,492.982L2587.64,492.693L2587.93,492.403L2588.1,492.229L2590.23,494.344ZM2599.8,482.41L2599.75,482.481L2599.52,482.844L2599.28,483.205L2599.04,483.565L2598.8,483.923L2598.56,484.279L2598.31,484.634L2598.07,484.988L2597.82,485.339L2597.57,485.69L2597.32,486.038L2597.06,486.385L2596.8,486.731L2596.54,487.075L2596.28,487.417L2596.02,487.758L2595.76,488.097L2595.49,488.435L2595.33,488.632L2592.99,486.756L2593.14,486.567L2593.4,486.243L2593.65,485.918L2593.9,485.592L2594.15,485.263L2594.4,484.934L2594.65,484.603L2594.89,484.27L2595.13,483.936L2595.37,483.6L2595.61,483.263L2595.85,482.924L2596.08,482.584L2596.32,482.243L2596.55,481.9L2596.77,481.555L2597,481.209L2597.22,480.862L2597.27,480.798L2599.8,482.41ZM2606.61,468.722L2606.54,468.913L2606.39,469.323L2606.23,469.731L2606.07,470.138L2605.91,470.544L2605.74,470.949L2605.58,471.353L2605.41,471.755L2605.24,472.156L2605.06,472.556L2604.89,472.954L2604.71,473.352L2604.53,473.748L2604.35,474.142L2604.16,474.536L2603.97,474.928L2603.78,475.319L2603.59,475.708L2603.57,475.754L2600.89,474.41L2600.91,474.372L2601.09,474L2601.27,473.625L2601.45,473.249L2601.63,472.872L2601.8,472.494L2601.98,472.115L2602.15,471.735L2602.32,471.352L2602.48,470.97L2602.65,470.586L2602.81,470.2L2602.97,469.813L2603.12,469.426L2603.28,469.037L2603.43,468.647L2603.58,468.255L2603.73,467.864L2603.8,467.682L2606.61,468.722ZM2607.38,453.481L2610.35,453.888L2610.35,453.893L2610.28,454.339L2610.22,454.784L2610.15,455.228L2610.08,455.671L2610,456.113L2609.92,456.554L2609.84,456.995L2609.76,457.434L2609.67,457.873L2609.59,458.31L2609.49,458.747L2609.4,459.182L2609.3,459.617L2609.21,460.051L2609.11,460.484L2609,460.915L2608.89,461.346L2608.88,461.412L2605.97,460.672L2605.99,460.616L2606.09,460.203L2606.19,459.789L2606.28,459.375L2606.38,458.96L2606.47,458.544L2606.56,458.127L2606.65,457.708L2606.73,457.289L2606.81,456.869L2606.89,456.448L2606.97,456.026L2607.04,455.604L2607.12,455.18L2607.18,454.756L2607.25,454.33L2607.32,453.904L2607.38,453.477L2607.38,453.481ZM2610.87,438.831L2610.9,439.287L2610.92,439.743L2610.95,440.2L2610.97,440.658L2610.99,441.117L2611.01,441.575L2611.02,442.036L2611.03,442.497L2611.04,442.958L2611.04,443.42L2611.04,443.883L2611.04,444.346L2611.04,444.808L2611.03,445.269L2611.02,445.73L2611.01,446.19L2611,446.268L2608.01,446.163L2608.01,446.094L2608.02,445.654L2608.03,445.212L2608.04,444.769L2608.04,444.327L2608.04,443.883L2608.04,443.439L2608.04,442.996L2608.03,442.553L2608.02,442.112L2608.01,441.671L2607.99,441.231L2607.97,440.791L2607.95,440.352L2607.93,439.914L2607.9,439.476L2607.87,439.04L2607.86,438.831L2610.85,438.611L2610.87,438.831ZM2608.2,423.858L2608.32,424.282L2608.44,424.708L2608.56,425.134L2608.67,425.562L2608.78,425.99L2608.89,426.42L2609,426.851L2609.11,427.282L2609.21,427.715L2609.3,428.148L2609.4,428.583L2609.49,429.019L2609.59,429.455L2609.67,429.893L2609.76,430.331L2609.84,430.771L2609.89,431.015L2606.94,431.553L2606.89,431.317L2606.81,430.896L2606.73,430.476L2606.65,430.057L2606.56,429.639L2606.47,429.222L2606.38,428.806L2606.28,428.39L2606.19,427.976L2606.09,427.563L2605.99,427.15L2605.88,426.738L2605.77,426.328L2605.66,425.919L2605.55,425.51L2605.44,425.103L2605.32,424.696L2605.24,424.415L2608.12,423.567L2608.2,423.858ZM2602.39,409.749L2602.6,410.13L2602.8,410.513L2603,410.897L2603.2,411.283L2603.4,411.669L2603.59,412.058L2603.78,412.447L2603.97,412.838L2604.16,413.23L2604.35,413.623L2604.53,414.018L2604.71,414.414L2604.89,414.811L2605.06,415.21L2605.24,415.61L2605.41,416.011L2605.55,416.347L2602.78,417.508L2602.65,417.18L2602.48,416.796L2602.32,416.413L2602.15,416.031L2601.98,415.65L2601.8,415.271L2601.63,414.893L2601.45,414.516L2601.27,414.141L2601.09,413.766L2600.91,413.393L2600.72,413.021L2600.53,412.651L2600.34,412.282L2600.15,411.914L2599.95,411.547L2599.76,411.182L2599.6,410.894L2602.23,409.454L2602.39,409.749ZM2593.57,397.015L2593.85,397.341L2594.12,397.669L2594.4,397.998L2594.68,398.329L2594.95,398.661L2595.22,398.995L2595.49,399.331L2595.76,399.669L2596.02,400.008L2596.28,400.348L2596.54,400.69L2596.8,401.035L2597.06,401.38L2597.32,401.727L2597.57,402.076L2597.82,402.426L2598.07,402.778L2598.19,402.948L2595.73,404.665L2595.61,404.502L2595.37,404.165L2595.13,403.83L2594.89,403.495L2594.65,403.163L2594.4,402.831L2594.15,402.502L2593.9,402.174L2593.65,401.847L2593.4,401.522L2593.14,401.199L2592.88,400.877L2592.62,400.557L2592.36,400.238L2592.1,399.921L2591.83,399.606L2591.57,399.292L2591.3,398.98L2591.21,398.883L2593.47,396.911L2593.57,397.015ZM2582.6,386.749L2582.95,387.01L2583.29,387.273L2583.62,387.538L2583.96,387.805L2584.3,388.074L2584.63,388.345L2584.97,388.617L2585.3,388.892L2585.62,389.169L2585.95,389.448L2586.28,389.728L2586.6,390.01L2586.93,390.295L2587.24,390.581L2587.56,390.869L2587.88,391.159L2588.15,391.409L2586.11,393.61L2585.85,393.367L2585.55,393.089L2585.24,392.813L2584.93,392.539L2584.62,392.266L2584.31,391.995L2584,391.726L2583.69,391.46L2583.37,391.194L2583.05,390.931L2582.74,390.67L2582.42,390.41L2582.1,390.152L2581.77,389.897L2581.45,389.643L2581.12,389.391L2580.79,389.141L2580.48,388.903L2582.28,386.506L2582.6,386.749ZM2569.28,378.764L2569.67,378.947L2570.06,379.133L2570.46,379.32L2570.85,379.51L2571.24,379.702L2571.62,379.897L2572.01,380.094L2572.4,380.292L2572.78,380.494L2573.16,380.697L2573.55,380.903L2573.92,381.111L2574.3,381.321L2574.68,381.534L2575.06,381.748L2575.43,381.965L2575.8,382.184L2575.91,382.249L2574.38,384.827L2574.28,384.766L2573.92,384.556L2573.56,384.349L2573.2,384.143L2572.84,383.939L2572.48,383.738L2572.11,383.539L2571.75,383.342L2571.38,383.147L2571.01,382.954L2570.64,382.763L2570.27,382.575L2569.9,382.389L2569.53,382.204L2569.15,382.023L2568.78,381.843L2568.4,381.665L2568.02,381.49L2567.88,381.426L2569.13,378.696L2569.28,378.764ZM2554.71,373.892L2555.14,373.988L2555.58,374.087L2556.01,374.188L2556.44,374.292L2556.87,374.399L2557.3,374.508L2557.73,374.62L2558.16,374.734L2558.59,374.851L2559.01,374.971L2559.44,375.093L2559.86,375.217L2560.28,375.345L2560.7,375.474L2561.12,375.606L2561.54,375.741L2561.96,375.878L2562.01,375.894L2561.05,378.738L2561.01,378.726L2560.61,378.594L2560.21,378.465L2559.81,378.339L2559.41,378.214L2559,378.093L2558.6,377.973L2558.19,377.856L2557.78,377.742L2557.38,377.63L2556.97,377.52L2556.55,377.413L2556.14,377.309L2555.73,377.207L2555.32,377.107L2554.9,377.01L2554.49,376.915L2554.07,376.823L2553.98,376.804L2554.61,373.871L2554.71,373.892ZM2539.87,372.253L2540.34,372.257L2540.8,372.264L2541.26,372.275L2541.72,372.288L2542.18,372.304L2542.64,372.323L2543.09,372.344L2543.55,372.369L2544.01,372.397L2544.46,372.427L2544.92,372.46L2545.37,372.496L2545.83,372.535L2546.28,372.577L2546.73,372.621L2547.05,372.655L2546.74,375.639L2546.43,375.606L2545.99,375.563L2545.56,375.523L2545.12,375.486L2544.69,375.451L2544.25,375.42L2543.82,375.391L2543.38,375.364L2542.94,375.341L2542.5,375.32L2542.06,375.302L2541.62,375.286L2541.18,375.274L2540.74,375.264L2540.3,375.257L2539.85,375.253L2539.41,375.251L2539.42,372.251L2539.87,372.253Z" style="fill:rgb(35,35,35);fill-opacity:0.878431;"/>
                </g>
            </g>
            <g transform="matrix(1,0,0,1,-128.246,607.579)">
                <path d="M2471.99,417.699L2518.94,417.699L2518.94,470.647L2419.04,470.647L2419.04,370.751L2471.99,370.751L2471.99,417.699ZM2422.04,373.751L2422.04,467.647L2515.94,467.647L2515.94,420.699L2468.99,420.699L2468.99,373.751L2422.04,373.751Z" style="fill:rgb(35,35,35);fill-opacity:0.878431;"/>
            </g>
            <g transform="matrix(1,0,0,1,-128.246,607.579)">
                <path d="M2515.94,420.699L2515.94,373.751L2468.99,373.751L2515.94,373.751L2515.94,420.699Z" style="fill:none;"/>
            </g>
            <g transform="matrix(1,0,0,1,-128.246,607.579)">
                <rect x="2468.99" y="373.751" width="46.948" height="46.948" style="fill:none;"/>
            </g>
            <g transform="matrix(1,0,0,1,-104.772,584.106)">
                <path d="M2518.94,423.699L2465.99,423.699L2465.99,370.751L2518.94,370.751L2518.94,423.699ZM2468.99,373.751L2468.99,420.699L2515.94,420.699L2515.94,373.751L2468.99,373.751Z" style="fill:rgb(35,35,35);"/>
            </g>
            <g transform="matrix(1,0,0,1,-128.246,607.579)">
                <path d="M2559.41,417.225L2535.94,417.225L2535.94,484.647C2535.94,486.303 2534.59,487.647 2532.94,487.647C2518.83,487.647 2459.15,487.647 2445.04,487.647C2443.39,487.647 2442.04,486.303 2442.04,484.647C2442.04,470.535 2442.04,410.862 2442.04,396.751C2442.04,395.094 2443.39,393.751 2445.04,393.751L2512.46,393.751L2512.46,370.277L2559.41,370.277L2559.41,417.225Z" style="fill:rgb(35,35,35);fill-opacity:0.101961;"/>
            </g>
        </g>
    </g>
</svg>
